<svg xmlns="http://www.w3.org/2000/svg" viewBox="0 0 62.54 65.3"><defs><style>.cls-1,.cls-2,.cls-4{fill:#1d1d1b;}.cls-2,.cls-3,.cls-4,.cls-5,.cls-6{stroke:#1d1d1b;stroke-linejoin:round;}.cls-2,.cls-6{stroke-width:0.92px;}.cls-3,.cls-5,.cls-6{fill:none;}.cls-3,.cls-4{stroke-width:0.83px;}.cls-5{stroke-width:0.87px;}</style></defs><title>로고</title><g id="Layer_2" data-name="Layer 2"><g id="머리"><g id="로고"><path class="cls-1" d="M17.45,11.08h3.12A5.35,5.35,0,0,1,24,12,4.89,4.89,0,0,1,25.6,16a5.36,5.36,0,0,1-1.43,4.16,3.77,3.77,0,0,1-1.46.81,7.61,7.61,0,0,1-2.13.24H17.21l1.09-.83V12Zm.25,10.81-.11-.21h2.89a7,7,0,0,0,3.25-.6c1.59-.84,2.39-2.48,2.39-4.9a5.26,5.26,0,0,0-1.07-3.61l-.32-.35-.1-.11c1.12.7,1.68,2.05,1.68,4a5.86,5.86,0,0,1-1.66,4.61,6.19,6.19,0,0,1-4.17,1.14Zm2.15-10.14v8.88h.44V12.27a5.14,5.14,0,0,1,.75-.06,3.12,3.12,0,0,1,1,.13,1.93,1.93,0,0,1,.76.48,4.09,4.09,0,0,0-1.8-.4l-.54,0v8.18a5,5,0,0,0,1.35-.14,2.12,2.12,0,0,0,.87-.57A5.44,5.44,0,0,0,23.85,16c0-1.79-.41-3-1.24-3.67a3.84,3.84,0,0,0-2.39-.59Z"/><path class="cls-1" d="M26.22,8.88H30L28.91,10v8.25l1,.84H26.22l1.1-.92V9.87Zm4.11.46-.81.8v8.07l1.33,1.48H26.74l-.2-.21h3.85L29.3,18.29V10.06l.9-.88Z"/><path class="cls-1" d="M31.25,11.26h3.56a6.23,6.23,0,0,1,3.22.62,2.45,2.45,0,0,1,1.22,2.18,2.41,2.41,0,0,1-.46,1.48,2.71,2.71,0,0,1-1.31.9,9.43,9.43,0,0,1-2.67.28h-1v3.83l1,.87H31.12l1.1-.93V17.32h-.13a2.46,2.46,0,0,0-1.1.25l-.07-.15a2,2,0,0,1,.95-.3h.35v-.38l-.25,0a2.11,2.11,0,0,0-1.35.41L30.54,17a1.63,1.63,0,0,1,1.55-.88h.13V12.22Zm7.6.85a1.65,1.65,0,0,1,.77.83,3,3,0,0,1,.3,1.36,2.62,2.62,0,0,1-1.33,2.47,7.48,7.48,0,0,1-3.44.57h-.68V20.6l1.24,1.47h-4l-.21-.21h3.73l-1-1.18V17.11c.46,0,.94,0,1.46,0a5.2,5.2,0,0,0,3-.72,2.56,2.56,0,0,0,1-2.21,2.88,2.88,0,0,0-.19-1.07A4,4,0,0,0,38.85,12.11Zm-5,0v4h.41V12.51h.87a4,4,0,0,1,1.43.18,1.51,1.51,0,0,1,.71.74,1.58,1.58,0,0,0-.74-.57,3.65,3.65,0,0,0-1.24-.16h-.81V16a4.43,4.43,0,0,0,2.3-.46,1.56,1.56,0,0,0,.73-1.44,1.9,1.9,0,0,0-.65-1.6,3.53,3.53,0,0,0-2.1-.5Z"/><path class="cls-1" d="M49,12.45a2,2,0,0,0-.15.15l-.77.77a6.88,6.88,0,0,0-.85,1.07l0,0-.06-.08v-.1a2.43,2.43,0,0,0-.28-1.39,2.06,2.06,0,0,0-1.15-.69c-.23-.06-.46-.12-.7-.16l-.09,0-2.35,8.26.66,1.09-3.48-1,1.32-.58,2.16-7.58-.54-.16a1.63,1.63,0,0,0-1.2,0,1.62,1.62,0,0,0-.7,1l-.2-.06a2,2,0,0,1,.81-1.11,1.88,1.88,0,0,1,1.35,0l.45.14.09,0,.1-.37a6.34,6.34,0,0,0-.72-.26,2.08,2.08,0,0,0-1.53,0,2,2,0,0,0-.87,1.21l-.09,0a14.9,14.9,0,0,0-.34-2.65l0-.09Zm-2,1.23a2.54,2.54,0,0,0-1.27-.78l-.37-.08-2.15,7.67.8,1.77-3.89-1.11L40,20.9l3.64,1-.68-1.46,2.26-7.93.41.11a3.29,3.29,0,0,1,1,.41A.92.92,0,0,1,47,13.68Zm2.37-.61A8.72,8.72,0,0,0,47.59,15l-.05.06-.13-.19,0-.06a7.81,7.81,0,0,1,1.72-1.88l0,0Z"/><path class="cls-1" d="M26.52,22.37l.05.06-.08.09a17.79,17.79,0,0,0-2.34,3l-.5.83L20.7,31.05v3.22l1.15,1H18l1.14-1V31.05l-1.9-2.92-.41-.66a10,10,0,0,0-.92-1.28,8.58,8.58,0,0,0-1.07-1l-.08-.07h4l-1,1,2.64,4,.25-.41L18.3,26.18l.83-.79.17.12-.72.67,2.19,3.38,1.78-2.79a4,4,0,0,0,.76-1.83,1.76,1.76,0,0,0-.67-1.15,15.56,15.56,0,0,0,3.79-1.37Zm.36.48v.32l-.08.08a9.4,9.4,0,0,0-1.14,1.27c-.32.42-.8,1.13-1.43,2.13l-2.86,4.51v3.11L22.78,36h-5l-.1-.21h4.64l-1.21-1.49V31.11l2.93-4.61.45-.73A12.72,12.72,0,0,1,26.88,22.85Z"/><path class="cls-1" d="M28.78,36.09a2.18,2.18,0,0,0,1.6.67,2.71,2.71,0,0,0,1.12-.28l.05,0q-.35.48-.57.87l-.54,1,0,.05a3.47,3.47,0,0,1-2.12-1.3,3.55,3.55,0,0,1-1.53.35,2.86,2.86,0,0,1-2-.64l0,0a4.26,4.26,0,0,0,1.83.49,3.69,3.69,0,0,0,1.5-.3l-.05-.06a1,1,0,0,0-.2-.26,4,4,0,0,1-1.41.26,3.65,3.65,0,0,1-2.92-1.42A5.4,5.4,0,0,1,22.43,32a5.34,5.34,0,0,1,1.13-3.55,3.68,3.68,0,0,1,3-1.35,3.54,3.54,0,0,1,2.89,1.33,5.39,5.39,0,0,1,1.1,3.52,6.12,6.12,0,0,1-.38,2.27A5.71,5.71,0,0,1,28.85,36ZM28.4,35a7.6,7.6,0,0,0,.5-3.14q0-4.2-2.48-4.2T24,32.06a6.06,6.06,0,0,0,.67,3.11A2.06,2.06,0,0,0,26.5,36.3a2.31,2.31,0,0,0,1-.21,1.3,1.3,0,0,0-1.15-.82l-.18,0,.51-.64a4.17,4.17,0,0,1,1.31.77l.09.08.21-.28,0-.06A3.53,3.53,0,0,0,27,34.4l.1-.17a4.82,4.82,0,0,1,1.21.68Zm-.55-6.46-.11,0a2.42,2.42,0,0,0-1-.27,1.66,1.66,0,0,0-1.6,1,8.4,8.4,0,0,0-.48,3.33c0,1.77.49,2.94,1.49,3.53h-.08a2,2,0,0,1-1.19-1.18,6.4,6.4,0,0,1-.41-2.49A8,8,0,0,1,25,29.09a1.74,1.74,0,0,1,1.67-1,1.86,1.86,0,0,1,1.19.4ZM29,27.58a3.32,3.32,0,0,1,1.64,1.61,6,6,0,0,1,.6,2.76,6.19,6.19,0,0,1-1.38,4,2.3,2.3,0,0,0,1.31.44v0a2.82,2.82,0,0,1-.42,0A1.74,1.74,0,0,1,29.55,36,5.57,5.57,0,0,0,31,31.93a5,5,0,0,0-2-4.31Zm3.11,9.27A14.16,14.16,0,0,0,31,38.62l-.05.09-.18-.09a8.5,8.5,0,0,1,.57-1l.58-.84,0-.06Z"/><path class="cls-1" d="M39.44,23.91,38,25v5.12a15.42,15.42,0,0,1-.1,2,2.36,2.36,0,0,1-.36,1,3,3,0,0,1-2.64,1,3.55,3.55,0,0,1-2.9-1,5,5,0,0,1-.66-3.06V24.88l-1.07-1H34L33,25v6.4A2.37,2.37,0,0,0,33.46,33a2.29,2.29,0,0,0,1.66.49,1.93,1.93,0,0,0,1.76-.75,5.63,5.63,0,0,0,.39-2.61l0-5.13-1.23-1.13Zm.27.54-1.08.89v4.92a8.08,8.08,0,0,1-.38,3.15,3.07,3.07,0,0,1-3,1.49,4,4,0,0,1-2.93-1l.06,0,.28.16a4.92,4.92,0,0,0,2.5.57A2.94,2.94,0,0,0,38,33.31a7.48,7.48,0,0,0,.38-3V25.25l1.18-1Zm-5.34-.11-.78.78v6.43l.25,1a3.36,3.36,0,0,0,.69.73v.07a1.68,1.68,0,0,1-.92-.78,3.83,3.83,0,0,1-.25-1.6V25l.9-.87Z"/><path class="cls-1" d="M48.16,26.92l-.13.15a7.64,7.64,0,0,0-1.28,2.27,2.31,2.31,0,0,1-.12-.27,2.6,2.6,0,0,0-.94-1.23,4.09,4.09,0,0,0-1.79-.28c-.39,0-.87,0-1.42,0v3.65H43V28c.4,0,.78-.05,1.14-.05a3.86,3.86,0,0,1,1.48.21,2,2,0,0,1,.85.83l-.16-.12a4.16,4.16,0,0,0-.92-.6,4.54,4.54,0,0,0-1.13-.09l-.9,0h-.17v3h1.46l1-1.4v3.41l-1-1.32H42.48v4.44H43V32.31H44.7l.21.2H43.18v3.87a8.11,8.11,0,0,0,2.3-.23,1.92,1.92,0,0,0,1.07-.9l.42-.72s.05-.09.09-.18a5.45,5.45,0,0,0,.51,1.4,7,7,0,0,0,1,1.22H39.71l1.2-.92V32.51a2.92,2.92,0,0,0-1.2.42l-.11-.17a2.85,2.85,0,0,1,1.31-.45v-.37l-.19,0a2.17,2.17,0,0,0-1.47.59,1.58,1.58,0,0,1,1.66-1.26V27.87l-1.2-.95ZM49.49,37l-.41.72H40.43l-.13-.22H49l.27-.5a6.2,6.2,0,0,1-1.61-2.25l.26.1a6.61,6.61,0,0,0,1.47,2Zm-3.28-6.9v3.5L46,33.5V30Zm2.33-2.64-.06.07a9.64,9.64,0,0,0-1.29,2.18l-.13-.17a9.22,9.22,0,0,1,1.37-2.25Z"/><path class="cls-2" d="M30.4,58.41s.51-.78-1.28,3.69"/><line class="cls-2" x1="33.56" y1="56.64" x2="33.56" y2="60.23"/><path class="cls-2" d="M30.11,49.81s.65,3.42,0,4.71"/><path class="cls-2" d="M36.84,49.81a16.46,16.46,0,0,0-.62,8.09"/><path class="cls-3" d="M56.45,14.81s-.7-3.62-7.15-4.69c0,0,4.77.65,6.21,2"/><path class="cls-4" d="M56.26,11.36s1.58-4.11-2-9.13c0,0,4,3.68,4,13"/><path class="cls-4" d="M59.51,24.23a6.41,6.41,0,0,0,2.62-4.53s0,4.85-3.25,8.06"/><path class="cls-3" d="M56.22,29.43s.85-2.11-2.47-5.65a7.65,7.65,0,0,1,3,3.56"/><path class="cls-4" d="M52.6,39.54s4.53.09,6.56-5c0,0-2.77,6.43-7.72,6.23"/><path class="cls-3" d="M46.23,42.59a4.59,4.59,0,0,0,1.28-3.74s.52,2.44,0,2.8"/><path class="cls-5" d="M14.71,39.5a4.81,4.81,0,0,0,3.64-.13,10.11,10.11,0,0,1-2.92.82"/><polyline class="cls-6" points="15.43 3.34 18.34 3.34 14.88 3.86"/><path class="cls-2" d="M13.61,40.61s-6.8-.79-8.34-4.47c0,0,4.18,7.33,10.16,6.37"/><path class="cls-2" d="M5.27,22.62s-5.6-4-3.45-10.35c0,0-4.84,7.52,3.72,13.33"/><path class="cls-2" d="M45.55.46a52.54,52.54,0,0,1,5.23,4.32A25.55,25.55,0,0,0,45.55.46Z"/><path class="cls-2" d="M50.78,4.78A25,25,0,1,1,18,1.25s-27.44,17.44-1.82,42c0,0,12.73,5.41,11.47,14.18a27.84,27.84,0,0,1-2.23,7.39H38.86a18.62,18.62,0,0,1-.61-7.32c.83-9,5.76-12.6,9-14a15.86,15.86,0,0,0,6.31-5.11C62.28,26.48,61.7,15.15,50.78,4.78Z"/><path class="cls-4" d="M9.41,10.9l1.22-9.81A15.53,15.53,0,0,0,7.72,12.77"/><path class="cls-2" d="M9.37,31.64c2.66-6.25,2-15.43,2-15.43s-1.19,10.15-2.89,13"/></g></g></g></svg>