<svg xmlns="http://www.w3.org/2000/svg" viewBox="0 0 308.64 179.98"><defs><style>.cls-1,.cls-5,.cls-6,.cls-8{fill:#1d1d1b;}.cls-1,.cls-2,.cls-3{fill-rule:evenodd;}.cls-3{fill:#fff;}.cls-4{fill:#0b0d0d;}.cls-10,.cls-6,.cls-7,.cls-8,.cls-9{stroke:#1d1d1b;stroke-linejoin:round;}.cls-10,.cls-6{stroke-width:0.98px;}.cls-10,.cls-7,.cls-9{fill:none;}.cls-7,.cls-8{stroke-width:0.89px;}.cls-9{stroke-width:0.93px;}</style></defs><title>유니폼</title><g id="Layer_2" data-name="Layer 2"><g id="머리"><g id="유니폼"><g id="유니폼-2" data-name="유니폼"><path class="cls-1" d="M114.49,84.54c0,5.68,0,11.37,0,17q.27,35.37.59,70.73c0,4.31-1,6.07-5.23,6.36-10.23.7-20.49,1.34-30.73,1.3-13,0-25.91-.78-38.87-1.23a8.63,8.63,0,0,1-1-.1c-6.85-1-7.13-1.33-7.16-8.2l-.27-79.87a7.7,7.7,0,0,0-.77-4c-1.38,2.27-2.92,4.47-4.1,6.84S24.15,96.5,21.74,96A43,43,0,0,1,1.49,85.62C-.22,84-.38,82.49.62,80.25c7-15.66,13.65-31.44,20.69-47.06,2.82-6.26,8.4-9.74,14.58-12.26,4.35-1.77,8.83-3.29,13-5.39,1.55-.77,2.5-2.82,3.63-4.35C54.81,8.12,56.9,4.94,59.26,2A5,5,0,0,1,62.49,0c8.68,0,17.36.1,26,.37C89.37.4,90.43,1.46,91,2.3a58.94,58.94,0,0,1,3,5.68,12.3,12.3,0,0,0,6.35,6.17c7.5,3.34,14.81,7.11,22.26,10.58,3.44,1.59,5.26,4.55,6.71,7.67,7.23,15.55,14.25,31.19,21.48,46.74,1.27,2.73.77,4.57-1.68,5.94C142.07,89,135.13,93,128,96.57c-3.9,2-5.11,1.25-7.23-2.59-1.78-3.2-3.54-6.4-5.31-9.6ZM96.52,15c-1,3-1.75,5.52-2.61,8.06-1.15,3.36-3.47,4.43-6.86,3.5-2.49-.69-5.11-1.59-7.6-1.4a11.36,11.36,0,0,0-6.39,2.75c-1.92,1.76-3.09,4.37-4.43,6.71a8.37,8.37,0,0,0-1.16,3.44c-.26,3.49-.81,4-3.49,3.66-.25-3.19.35-6.56-.89-9-2.34-4.58-6.72-6.48-12-5.31-1.38.31-2.58,1.36-4,1.74a8.35,8.35,0,0,1-2.85-.28,10,10,0,0,0,.8-2.45c.12-1.75.53-3.79-.2-5.17-.39-.72-3.12-.8-4.46-.29a57.11,57.11,0,0,0-8.23,4.23C30.33,26.33,28.73,28,26.8,29c-3.33,1.76-.58,3.85-.53,5.79,0,.78.13,1.56.2,2.33l-.4.08-2-5.72L1.37,82.87C5.08,87.31,9,90,15.7,92.62c8.09,3.21,8.13,3.23,12.54-4.28,1.46-2.47,3.64-5,3.83-7.65.7-9.65.36-19.32-2.42-28.79a4.56,4.56,0,0,1,1.59,2.44c.65,5.2,1.46,10.41,1.65,15.64.26,7.15,0,14.33,0,21.5q0,37.58.09,75.15c0,10.6,0,10.93,10.68,11.37,15,.6,30,.78,45,.89,6.3.05,12.62-.46,18.92-.88,4.25-.28,6.36-2.28,6.33-5.58-.15-11.92-.37-23.84-.43-35.76-.1-17.25-.1-34.51-.1-51.77,0-1.27.22-2.55.4-4.37,1.07.8,1.76,1.07,2,1.56,2.14,3.71,4.43,7.36,6.22,11.23,1.37,3,3.23,3.24,5.66,1.92,6.62-3.62,13.12-7.46,19.78-11,2.67-1.41,2.73-2.86,1.55-5.39C143.26,66.62,137.72,54.28,132.08,42c-1.65-3.58-3.18-7.24-5.15-10.65-1.66-2.88-3.28-2.67-4.65.16-.4.81-.94,1.55-1.41,2.33l-.5-.29c.79-1.9,1.57-3.81,2.68-6.52-3.82-1.82-7.44-3.61-11.12-5.27C106.9,19.49,101.83,17.34,96.52,15ZM59.91,10.69a30.24,30.24,0,0,0,3.77.41C68.85,11,74,10.86,79.2,10.73s7.57-2.6,7.63-8.61c-6.18,0-12.35,0-18.52,0C60.51,2.07,60.32,2.24,59.91,10.69ZM80,17.47c-2.39,0-4.52-.11-6.63,0-3.15.21-6,.31-7.4-3.48-.25-.66-2.49-.89-3.75-.75a3.23,3.23,0,0,0-2.33,1.83C58.3,21,61.38,28.61,66.48,32.32ZM89.5,5.36C86.3,11,83.11,16.72,79.79,22.64c2.9.5,5.65,1.1,8.41,1.37A3.57,3.57,0,0,0,91,22.9C94.6,17.84,93.85,10.16,89.5,5.36Zm-32,4.72-1.16-.42L47,24.76H57.47Zm9.89,2.55c1.51,5.63,5.75,3,8.71,3.55,2.61.49,3.79-1.11,4.26-3.55Z"/><path class="cls-2" d="M277.32,87.16v51.42a64.6,64.6,0,0,0,.09,7.1c.13,1.2,1.41,2.28,1.49,3.47a39.2,39.2,0,0,1-.34,7.17c-.11.94-1.13,1.79-1.17,2.7a109,109,0,0,0,0,12.52c.27,3.41-1.28,4.9-4.24,5.25-6.37.74-12.77,1.78-19.16,1.82-16,.1-32-.29-48-.48-.45,0-.9,0-1.35-.06-8.19-.49-9-1.73-9-9.85.23-27.64.25-55.28.34-82.92,0-.16-.2-.33-.55-.85-2,3.66-4.06,7.09-5.82,10.66-1.21,2.43-3.1,3.22-5.24,2.11-7.79-4-15.47-8.29-23.13-12.58-1.75-1-1.78-2.57-.94-4.4q10.83-23.52,21.54-47.08c2.25-4.91,6.48-7.67,11.09-9.81,6.44-3,12.94-5.82,19.56-8.37,2.57-1,3.57-2.24,3.25-4.9a49,49,0,0,1,0-5.58C217,4.4,218,4.25,219,4.25c11.73,0,23.47,0,35.2,0,2.48,0,3.42.65,3.31,3.24-.32,7.36-1.1,7.85,7.76,11.35a149.56,149.56,0,0,1,15,7.41c4.26,2.26,6.55,6.14,8.43,10.5Q298.11,58.62,308,80.35c1.23,2.7.78,4.38-1.26,6.16A43.91,43.91,0,0,1,288.21,96c-2.88.73-5,.07-6.31-2.86a63,63,0,0,0-3.75-6.25Zm-81.66-6,1.31.29c.11,1.73.33,3.47.32,5.21-.11,18.48-.28,37-.38,55.45,0,9.12.1,18.26,0,27.38-.06,5.34,1.08,7.1,6.4,7.32,13.3.53,26.61,1.12,39.92,1.05,9.33,0,18.69-.9,28-1.82,4.87-.48,5-1,5-5.77,0-34.5-.06-69,.11-103.51,0-4.18,1.27-8.35,2-12.51.08-.47.73-.84,1.34-1.5-.94,4.79-2.14,9.1-2.55,13.49a114.59,114.59,0,0,0-.05,13.87,8.57,8.57,0,0,0,1,3.8c1.68,3,3.66,5.92,5.36,9,1,1.77,2.24,2.37,4.17,1.86C294.47,92.86,300.76,90,306,85c1.23-1.19,1.38-2,.64-3.7-6-13.45-11.87-27-17.79-40.46-1.09-2.48-2.24-4.93-3.36-7.39l-.86.15-1.48,4.63c-.29-1.34-.44-2.75.16-3.67,1.35-2.06.72-3.3-1.12-4.4-3.67-2.21-7.25-4.6-11-6.6a50.13,50.13,0,0,0-8-3.11c-2.45-.78-5-1.26-7.44-1.87,3.37-1.06,1-2.17-.09-2.85,1.6-3.65.79-7,.81-10.29H216.31c.22,3.57.42,6.9.63,10.33l-2.94.87c1.43.82,2.29,1.33,3.15,1.83-4.5-2.92-8,.41-11.81,1.75-1.7.59-3.32,1.4-5,2.09-4.38,1.83-9.23,2.85-12.19,7.09.68,1.73,1.38,3.49,2.07,5.25a3,3,0,0,1-1.57-1.42c-.69-.9-1.43-1.76-2.15-2.63-1,.83-2.05,1.64-3,2.52a3.62,3.62,0,0,0-.67,1.17q-10.47,22.91-21,45.82c-.9,2-.56,3.14,1.27,4.15,6.6,3.65,13.15,7.39,19.76,11,2.55,1.41,4.47,1.22,5.94-1.88C190.84,89.18,193.36,85.21,195.66,81.14Z"/><path class="cls-3" d="M96.52,15c5.31,2.31,10.38,4.46,15.41,6.72,3.68,1.66,7.3,3.45,11.12,5.27-1.11,2.71-1.89,4.62-2.68,6.52l.5.29c.47-.78,1-1.52,1.41-2.33,1.37-2.83,3-3,4.65-.16,2,3.41,3.5,7.07,5.15,10.65,5.64,12.29,11.18,24.63,16.92,36.87,1.18,2.53,1.12,4-1.55,5.39-6.66,3.53-13.16,7.37-19.78,11-2.43,1.32-4.29,1-5.66-1.92-1.79-3.87-4.08-7.52-6.22-11.23-.28-.49-1-.76-2-1.56-.18,1.82-.41,3.1-.4,4.37,0,17.26,0,34.52.1,51.77.06,11.92.28,23.84.43,35.76,0,3.3-2.08,5.3-6.33,5.58-6.3.42-12.62.93-18.92.88-15-.11-30-.29-45-.89C33,177.56,33,177.23,33,166.63q0-37.57-.09-75.15c0-7.17.26-14.35,0-21.5-.19-5.23-1-10.44-1.65-15.64a4.56,4.56,0,0,0-1.59-2.44c2.78,9.47,3.12,19.14,2.42,28.79-.19,2.63-2.37,5.18-3.83,7.65-4.41,7.51-4.45,7.49-12.54,4.28C9,90,5.08,87.31,1.37,82.87L24.09,31.46l2,5.72.4-.08c-.07-.77-.18-1.55-.2-2.33-.05-1.94-2.8-4,.53-5.79,1.93-1,3.53-2.65,5.43-3.76A57.11,57.11,0,0,1,40.46,21c1.34-.51,4.07-.43,4.46.29.73,1.38.32,3.42.2,5.17a10,10,0,0,1-.8,2.45,8.35,8.35,0,0,0,2.85.28c1.38-.38,2.58-1.43,4-1.74,5.24-1.17,9.62.73,12,5.31,1.24,2.44.64,5.81.89,9,2.68.34,3.23-.17,3.49-3.66a8.37,8.37,0,0,1,1.16-3.44c1.34-2.34,2.51-4.95,4.43-6.71a11.36,11.36,0,0,1,6.39-2.75c2.49-.19,5.11.71,7.6,1.4,3.39.93,5.71-.14,6.86-3.5C94.77,20.55,95.56,18,96.52,15ZM93.65,63.17l-2.23-8.56-.88.19c-.45,1.22-.9,2.43-1.34,3.65l.42.23L91,57c.93,2.11,1.83,4.12,2.73,6.14l-2.49,3c.17-3.14-1.8-2.84-3.68-2.57-1.1.15-2.18.51-3.27.73-2.29.48-2.51,2.11-2.24,4,.31,2.21.67,4.41,1.09,7.11,2.69.92,7.15-.55,9.06,3.81a.33.33,0,0,0,.31.07c3.15-1.62,5.26.94,8.26,2.45l-2.1-6.3,2.06-.6c-4.18-5.45,1.89-6.16,3.91-8.59C100.82,65.15,97.23,64.17,93.65,63.17ZM88.15,78.8c.12-.24.23-.48.35-.73-.83-.25-1.64-.54-2.48-.74a4.93,4.93,0,0,0-1.48-.14c-1.39.06-2.78.19-4.17.29a22.44,22.44,0,0,1,1.17,2.42,3.09,3.09,0,0,1-.09,1.26Zm23.16-6.35c1.48-5,1-12.54,0-13.23Zm-.22-15.53.33.7c.75-.54,2-.94,2.16-1.63.66-2.48,1-5.05,1.42-7.6l-.66-.22Q112.72,52.55,111.09,56.92Z"/><path class="cls-3" d="M59.91,10.69c.41-8.45.6-8.62,8.4-8.58,6.17,0,12.34,0,18.52,0-.06,6-2.44,8.48-7.63,8.61s-10.35.3-15.52.37A30.24,30.24,0,0,1,59.91,10.69Z"/><path class="cls-3" d="M80,17.47,66.48,32.32C61.38,28.61,58.3,21,59.86,15.1a3.23,3.23,0,0,1,2.33-1.83c1.26-.14,3.5.09,3.75.75,1.4,3.79,4.25,3.69,7.4,3.48C75.45,17.36,77.58,17.47,80,17.47Z"/><path class="cls-3" d="M67.36,12.63h13c-.47,2.44-1.65,4-4.26,3.55C73.11,15.63,68.87,18.26,67.36,12.63Z"/><path class="cls-3" d="M195.66,81.14c-2.3,4.07-4.82,8-6.82,12.26-1.47,3.1-3.39,3.29-5.94,1.88-6.61-3.63-13.16-7.37-19.76-11-1.83-1-2.17-2.2-1.27-4.15q10.55-22.87,21-45.82a3.62,3.62,0,0,1,.67-1.17c1-.88,2-1.69,3-2.52.72.87,1.46,1.73,2.15,2.63a3,3,0,0,0,1.57,1.42c-.69-1.76-1.39-3.52-2.07-5.25,3-4.24,7.81-5.26,12.19-7.09,1.66-.69,3.28-1.5,5-2.09,3.77-1.34,7.31-4.67,11.81-1.75-.86-.5-1.72-1-3.15-1.83l2.94-.87c-.21-3.43-.41-6.76-.63-10.33h40.07c0,3.31.79,6.64-.81,10.29,1.06.68,3.46,1.79.09,2.85,2.45.61,5,1.09,7.44,1.87a50.13,50.13,0,0,1,8,3.11c3.78,2,7.36,4.39,11,6.6,1.84,1.1,2.47,2.34,1.12,4.4-.6.92-.45,2.33-.16,3.67l1.48-4.63.86-.15c1.12,2.46,2.27,4.91,3.36,7.39,5.92,13.49,11.77,27,17.79,40.46.74,1.65.59,2.51-.64,3.7-5.19,5-11.48,7.86-18.33,9.7-1.93.51-3.17-.09-4.17-1.86-1.7-3-3.68-5.91-5.36-9a8.57,8.57,0,0,1-1-3.8,114.59,114.59,0,0,1,.05-13.87c.41-4.39,1.61-8.7,2.55-13.49-.61.66-1.26,1-1.34,1.5-.76,4.16-2,8.33-2,12.51-.17,34.5-.1,69-.11,103.51,0,4.73-.09,5.29-5,5.77-9.3.92-18.66,1.78-28,1.82-13.31.07-26.62-.52-39.92-1.05-5.32-.22-6.46-2-6.4-7.32.1-9.12,0-18.26,0-27.38.1-18.48.27-37,.38-55.45,0-1.74-.21-3.48-.32-5.21Zm24.21-65.78a55.73,55.73,0,0,0,33.33,0Zm34,4.34H219.67A84.36,84.36,0,0,0,253.91,19.7ZM199.35,59.88l-.72-.17V72.89l.72,0Zm-3.06-10.67c.86,9.6.86,9.6,3.19,8.55C198.41,54.88,197.35,52.05,196.29,49.21Z"/><path class="cls-3" d="M93.64,63.19l11,3c-2,2.43-8.09,3.14-3.91,8.59l-2.06.6,2.1,6.3c-3-1.51-5.11-4.07-8.26-2.45a.33.33,0,0,1-.31-.07c-1.91-4.36-6.37-2.89-9.06-3.81-.42-2.7-.78-4.9-1.09-7.11-.27-1.88,0-3.51,2.24-4,1.09-.22,2.17-.58,3.27-.73,1.88-.27,3.85-.57,3.68,2.57l2.49-3Zm.59,7.42-.87-.94c-.84.93-1.67,1.87-2.69,3l-2.32-3.55-.85.48,2.94,4.9C91.7,73.22,93,71.91,94.23,70.61Z"/><path class="cls-3" d="M88.15,78.8l-6.7,2.36a3.09,3.09,0,0,0,.09-1.26,22.44,22.44,0,0,0-1.17-2.42c1.39-.1,2.78-.23,4.17-.29a4.93,4.93,0,0,1,1.48.14c.84.2,1.65.49,2.48.74C88.38,78.32,88.27,78.56,88.15,78.8Z"/><path class="cls-2" d="M111.31,72.45V59.22C112.36,59.91,112.79,67.45,111.31,72.45Z"/><path class="cls-2" d="M111.09,56.92q1.64-4.38,3.25-8.75l.66.22c-.44,2.55-.76,5.12-1.42,7.6-.19.69-1.41,1.09-2.16,1.63Z"/><path class="cls-3" d="M93.7,63.11c-.9-2-1.8-4-2.73-6.14l-1.35,1.71-.42-.23c.44-1.22.89-2.43,1.34-3.65l.88-.19c.74,2.85,1.49,5.71,2.23,8.57Z"/><path class="cls-2" d="M214.45,15.36h43.27C246.63,18.83,225.58,18.69,214.45,15.36Zm31.19,1.4v-.49H228.49v.49Z"/><path class="cls-2" d="M253.91,19.7a84.36,84.36,0,0,1-34.24,0Z"/><path class="cls-2" d="M199.35,59.88v13l-.72,0V59.71Z"/><path class="cls-2" d="M196.29,49.21c1.06,2.84,2.12,5.67,3.19,8.55C197.15,58.81,197.15,58.81,196.29,49.21Z"/><path class="cls-3" d="M245.64,16.76H228.49v-.49h17.15Z"/><path class="cls-3" d="M81.59,63.11V75.5s-.46,3.44,2.63,3.78c0,0,10.1,1,14.23,0,0,0,1.37,0,1.72-2.87V63.22"/><path class="cls-4" d="M82.09,63.11,81.75,75.5v0a5,5,0,0,0,.32,2.3,2.49,2.49,0,0,0,1.83,1.4,30.43,30.43,0,0,0,4.87.07c1.61,0,3.22.13,4.84.22a17.85,17.85,0,0,0,4.84-.23h0a1.3,1.3,0,0,0,.77-.41,2.45,2.45,0,0,0,.49-.74,6,6,0,0,0,.44-1.72h0q0-3.3-.16-6.59t-.32-6.6h1q-.24,3.3-.33,6.6t-.15,6.59h0a6.06,6.06,0,0,1-.46,1.73,2.48,2.48,0,0,1-.5.74,1.26,1.26,0,0,1-.78.4h0a37.31,37.31,0,0,1-4.84.67,27.43,27.43,0,0,1-4.88,0c-1.62-.2-3.22-.56-4.83-.72a2.84,2.84,0,0,1-2-1.33,3.45,3.45,0,0,1-.44-1.17,3,3,0,0,1,0-1.26v0l-.33-12.39Z"/><g id="로고"><path class="cls-5" d="M84.43,64.22h1.38a2.35,2.35,0,0,1,1.49.39A2.15,2.15,0,0,1,88,66.4a2.37,2.37,0,0,1-.64,1.84,1.63,1.63,0,0,1-.64.36,3.41,3.41,0,0,1-.94.1H84.33l.47-.36V64.62ZM84.54,69l-.05-.1h1.28a3,3,0,0,0,1.43-.26,2.21,2.21,0,0,0,1-2.16,2.26,2.26,0,0,0-.47-1.59l-.14-.16,0,0a2,2,0,0,1,.74,1.78,2.61,2.61,0,0,1-.73,2,2.77,2.77,0,0,1-1.84.5Zm.95-4.48v3.92h.19V64.74l.33,0a1.5,1.5,0,0,1,.46,0,1,1,0,0,1,.33.21,1.93,1.93,0,0,0-.79-.17h-.24v3.61a2.17,2.17,0,0,0,.59-.06.93.93,0,0,0,.39-.25,2.45,2.45,0,0,0,.5-1.73,1.93,1.93,0,0,0-.55-1.61,1.65,1.65,0,0,0-1-.27Z"/><path class="cls-5" d="M88.3,63.25H90l-.47.48v3.63l.44.37H88.3l.48-.4V63.69Zm1.81.2-.35.35v3.56l.58.66H88.53l-.09-.09h1.7l-.48-.53V63.77l.39-.39Z"/><path class="cls-5" d="M90.52,64.3h1.57a2.77,2.77,0,0,1,1.42.27,1.08,1.08,0,0,1,.54,1,1,1,0,0,1-.21.65,1.08,1.08,0,0,1-.57.4,4.11,4.11,0,0,1-1.18.13h-.43V68.4l.43.38H90.46l.49-.41V67h-.06a1.06,1.06,0,0,0-.49.11l0-.07a.87.87,0,0,1,.42-.13H91v-.17l-.11,0a.94.94,0,0,0-.6.19l0-.06a.72.72,0,0,1,.68-.39H91V64.72Zm3.35.37a.73.73,0,0,1,.34.37,1.32,1.32,0,0,1,.13.6,1.15,1.15,0,0,1-.58,1.09,3.31,3.31,0,0,1-1.52.25h-.3v1.45l.55.65H90.74l-.1-.1h1.65l-.45-.51V66.88l.65,0a2.32,2.32,0,0,0,1.34-.32,1.13,1.13,0,0,0,.43-1,1.36,1.36,0,0,0-.08-.47A2,2,0,0,0,93.87,64.67Zm-2.21,0v1.75h.18V64.85h.38a1.91,1.91,0,0,1,.64.08.67.67,0,0,1,.31.33.69.69,0,0,0-.32-.25,1.6,1.6,0,0,0-.55-.08h-.36v1.48a2,2,0,0,0,1-.2.7.7,0,0,0,.33-.64.86.86,0,0,0-.29-.71,1.59,1.59,0,0,0-.93-.22Z"/><path class="cls-5" d="M98.34,64.82l-.06.07-.34.34a2.75,2.75,0,0,0-.37.47l0,0,0,0v0A.94.94,0,0,0,97.4,65a.9.9,0,0,0-.5-.31l-.31-.07h0l-1,3.64.29.48-1.53-.44.58-.25,1-3.35-.23-.07a.58.58,0,0,0-.84.43l-.09,0a.9.9,0,0,1,.36-.49.84.84,0,0,1,.59,0l.2.06h0l0-.16a2.55,2.55,0,0,0-.33-.11.91.91,0,0,0-.67,0,.89.89,0,0,0-.38.54h0a6.94,6.94,0,0,0-.15-1.17v0Zm-.89.54a1.18,1.18,0,0,0-.56-.34l-.16,0-1,3.38.35.78-1.72-.49,0-.11L96,69l-.3-.64,1-3.5.18,0a1.69,1.69,0,0,1,.45.19A.4.4,0,0,1,97.45,65.36Zm1-.26a3.88,3.88,0,0,0-.76.84l0,0,0-.09,0,0a3.67,3.67,0,0,1,.75-.84h0Z"/><path class="cls-5" d="M88.43,69.2l0,0,0,0a7.17,7.17,0,0,0-1,1.32l-.23.36L85.86,73v1.42l.51.46h-1.7l.5-.46V73l-.84-1.29-.18-.29a3.91,3.91,0,0,0-.41-.57,4.55,4.55,0,0,0-.47-.42l0,0H85l-.43.45,1.16,1.76.11-.18-1-1.58.36-.35.08.06-.32.29,1,1.49.78-1.23a1.89,1.89,0,0,0,.34-.8.77.77,0,0,0-.3-.51,7.09,7.09,0,0,0,1.67-.61Zm.16.21v.14l0,0a4.28,4.28,0,0,0-.5.56c-.14.18-.35.5-.63.94l-1.26,2v1.37l.62.75H84.59l0-.09h2l-.53-.66v-1.4l1.29-2,.21-.32A5.51,5.51,0,0,1,88.59,69.41Z"/><path class="cls-5" d="M89.43,75.25a1,1,0,0,0,.7.3,1.25,1.25,0,0,0,.5-.12h0c-.1.14-.18.27-.25.38l-.24.44v0a1.55,1.55,0,0,1-.94-.57,1.63,1.63,0,0,1-.67.15,1.28,1.28,0,0,1-.87-.28l0,0a1.87,1.87,0,0,0,.8.21,1.59,1.59,0,0,0,.66-.13l0,0-.08-.11a1.71,1.71,0,0,1-.63.11A1.56,1.56,0,0,1,87.14,75a2.35,2.35,0,0,1-.52-1.56,2.38,2.38,0,0,1,.5-1.57,1.64,1.64,0,0,1,1.32-.6,1.57,1.57,0,0,1,1.27.59,2.41,2.41,0,0,1,.49,1.56,2.72,2.72,0,0,1-.17,1,2.41,2.41,0,0,1-.57.81Zm-.17-.49a3.3,3.3,0,0,0,.22-1.38c0-1.24-.36-1.86-1.09-1.86s-1.08.65-1.08,2a2.67,2.67,0,0,0,.3,1.38.92.92,0,0,0,.81.5,1.08,1.08,0,0,0,.43-.1.58.58,0,0,0-.51-.36h-.08l.23-.28a1.91,1.91,0,0,1,.57.34l0,0a.62.62,0,0,0,.09-.12l0,0a1.47,1.47,0,0,0-.57-.34l0-.08a2.86,2.86,0,0,1,.54.3ZM89,71.92l0,0a1.08,1.08,0,0,0-.44-.12.73.73,0,0,0-.7.45,3.7,3.7,0,0,0-.22,1.47,1.64,1.64,0,0,0,.66,1.55h0a.85.85,0,0,1-.53-.52,2.77,2.77,0,0,1-.18-1.1,3.47,3.47,0,0,1,.23-1.46.76.76,0,0,1,.73-.45.86.86,0,0,1,.53.17Zm.5-.42a1.42,1.42,0,0,1,.72.71,2.61,2.61,0,0,1,.27,1.22,2.71,2.71,0,0,1-.61,1.78,1,1,0,0,0,.58.19v0l-.19,0a.77.77,0,0,1-.52-.21,2.49,2.49,0,0,0,.65-1.81,2.18,2.18,0,0,0-.9-1.9Zm1.38,4.09a5,5,0,0,0-.5.78l0,0-.08,0a3.7,3.7,0,0,1,.25-.43l.25-.37,0,0Z"/><path class="cls-5" d="M94.13,69.88l-.62.5v2.26a8.41,8.41,0,0,1,0,.89,1.14,1.14,0,0,1-.16.45,1.31,1.31,0,0,1-1.17.45A1.56,1.56,0,0,1,90.86,74a2.28,2.28,0,0,1-.29-1.35V70.31l-.47-.43h1.65l-.48.46v2.83a1.06,1.06,0,0,0,.21.74,1,1,0,0,0,.73.22.84.84,0,0,0,.78-.34,2.37,2.37,0,0,0,.18-1.15V70.38l-.55-.5Zm.12.24-.47.39v2.17a3.63,3.63,0,0,1-.17,1.39,1.37,1.37,0,0,1-1.34.66A1.75,1.75,0,0,1,91,74.3h0l.12.07a2.11,2.11,0,0,0,1.1.26A1.32,1.32,0,0,0,93.51,74a3.4,3.4,0,0,0,.17-1.32V70.47L94.2,70Zm-2.36-.05-.34.34v2.84l.11.45A1.61,1.61,0,0,0,92,74v0a.76.76,0,0,1-.41-.35,1.72,1.72,0,0,1-.11-.7V70.38l.39-.38Z"/><path class="cls-5" d="M98,71.21l-.06.06a3.49,3.49,0,0,0-.56,1l-.06-.11a1.14,1.14,0,0,0-.41-.55,1.82,1.82,0,0,0-.79-.12l-.63,0v1.61h.23V71.69l.5,0a1.79,1.79,0,0,1,.66.09.93.93,0,0,1,.37.37l-.07,0a1.69,1.69,0,0,0-.41-.27,2.35,2.35,0,0,0-.5,0l-.39,0h-.08v1.33h.65l.45-.62V74l-.45-.58h-1v2h.23V73.59h.75l.09.09h-.76v1.7a3.49,3.49,0,0,0,1-.1.87.87,0,0,0,.47-.4l.18-.32a.5.5,0,0,1,0-.07,2.25,2.25,0,0,0,.22.61,2.71,2.71,0,0,0,.45.54H94.25l.53-.41V73.68a1.19,1.19,0,0,0-.53.18l0-.08a1.28,1.28,0,0,1,.58-.19v-.17H94.7a.92.92,0,0,0-.65.27.69.69,0,0,1,.73-.56v-1.5l-.53-.41Zm.58,4.45-.18.32H94.57l-.06-.1h3.83l.12-.22a2.58,2.58,0,0,1-.71-1l.11,0a2.69,2.69,0,0,0,.65.89Zm-1.44-3v1.55l-.09,0V72.57Zm1-1.16,0,0a4.39,4.39,0,0,0-.57,1l-.06-.07a4.19,4.19,0,0,1,.61-1Z"/></g></g><path class="cls-1" d="M79.21,23.58,90.49,25.8l2.48-3a21.34,21.34,0,0,0,.59-2.65,17.28,17.28,0,0,1,.59-2.48,29.83,29.83,0,0,0,.71-4.11A11.41,11.41,0,0,0,94,10.28C93.56,9.63,92.71,8,92.71,8L91.47,6.6,90.36,5l-1.3-.45L79,23.13Z"/><path class="cls-1" d="M59.45,11.58l25.17-.48s2.76-3.48,2.82-3.58-.14-4-.08-4.35a7.27,7.27,0,0,0-.45-1.76L73,.82,60.62,2.58Z"/><polygon class="cls-1" points="56.31 9.66 46.6 24.76 58.86 25.8 57.75 8.84 56.31 9.66"/><path class="cls-1" d="M256.67,5H216l-.78,10.68c12.94,1.41,25.72,3.08,41.48,0Z"/><g id="로고-2" data-name="로고"><path class="cls-5" d="M221,43.22l3.35,0a5.84,5.84,0,0,1,3.65.92,5.26,5.26,0,0,1,1.79,4.36q0,3.09-1.51,4.47a3.94,3.94,0,0,1-1.56.89,7.83,7.83,0,0,1-2.29.27l-3.61,0,1.16-.9-.06-9Zm.35,11.61-.13-.23,3.12,0a7.56,7.56,0,0,0,3.48-.66q2.55-1.38,2.52-5.28a5.63,5.63,0,0,0-1.17-3.87l-.35-.37a.58.58,0,0,0-.1-.12q1.82,1.11,1.83,4.31,0,3.36-1.75,5a6.62,6.62,0,0,1-4.46,1.25Zm2.23-10.91.07,9.54h.46l-.06-9a4.93,4.93,0,0,1,.81-.07,3.3,3.3,0,0,1,1.1.13,2.39,2.39,0,0,1,.82.51,4.39,4.39,0,0,0-1.94-.41l-.57,0,.06,8.79a5.12,5.12,0,0,0,1.44-.17,2.31,2.31,0,0,0,.93-.61c.82-.84,1.22-2.25,1.21-4.21s-.47-3.23-1.36-3.93a4.16,4.16,0,0,0-2.57-.62Z"/><path class="cls-5" d="M230.41,40.8l4,0-1.13,1.17.06,8.85,1.08.89-4,0,1.17-1-.06-8.87Zm4.42.45-.86.87.06,8.67,1.44,1.58-4.43,0-.21-.23,4.13,0-1.17-1.28L233.73,42l1-.95Z"/><path class="cls-5" d="M235.83,43.31l3.82,0a6.7,6.7,0,0,1,3.47.64,2.65,2.65,0,0,1,1.32,2.33,2.55,2.55,0,0,1-.49,1.59,2.79,2.79,0,0,1-1.39,1,10.12,10.12,0,0,1-2.87.32h-1.05l0,4.12,1.05.93-4,0,1.18-1,0-3.41h-.14a2.8,2.8,0,0,0-1.17.28l-.08-.16a2.32,2.32,0,0,1,1-.33h.37v-.41l-.26,0a2.3,2.3,0,0,0-1.45.45l-.09-.12a1.76,1.76,0,0,1,1.66-1h.14l0-4.17Zm8.16.86a1.79,1.79,0,0,1,.84.89,3.23,3.23,0,0,1,.33,1.45,2.82,2.82,0,0,1-1.41,2.67,8.19,8.19,0,0,1-3.69.64l-.73,0,0,3.52,1.35,1.57-4.26,0-.23-.23,4,0-1.09-1.25,0-3.83c.49,0,1,0,1.57,0a5.58,5.58,0,0,0,3.26-.8,2.74,2.74,0,0,0,1-2.38,2.88,2.88,0,0,0-.21-1.15A4.15,4.15,0,0,0,244,44.17Zm-5.38,0,0,4.26h.44l0-3.8H240a4.11,4.11,0,0,1,1.54.18,1.58,1.58,0,0,1,.76.79,1.6,1.6,0,0,0-.79-.6,3.9,3.9,0,0,0-1.33-.17h-.87l0,3.59a4.85,4.85,0,0,0,2.47-.51,1.7,1.7,0,0,0,.77-1.56,2,2,0,0,0-.71-1.71,3.75,3.75,0,0,0-2.26-.52C239.32,44.13,239,44.14,238.61,44.17Z"/><path class="cls-5" d="M254.88,44.46l-.15.16-.83.83a8.1,8.1,0,0,0-.9,1.16l0,0-.07-.08v-.11A2.62,2.62,0,0,0,252.6,45a2.2,2.2,0,0,0-1.24-.73c-.25-.07-.5-.12-.75-.17l-.1,0-2.46,8.89.72,1.16-3.75-1,1.42-.64,2.26-8.16-.58-.16a1.82,1.82,0,0,0-1.29,0,1.86,1.86,0,0,0-.75,1.05l-.21-.05a2.1,2.1,0,0,1,.86-1.2,2,2,0,0,1,1.45,0l.49.15.09,0,.11-.4a7.27,7.27,0,0,0-.78-.27,2.29,2.29,0,0,0-1.65,0,2.17,2.17,0,0,0-.92,1.31l-.09,0a16.63,16.63,0,0,0-.39-2.84l0-.1Zm-2.17,1.33a2.76,2.76,0,0,0-1.36-.82l-.4-.08-2.25,8.24.87,1.91-4.18-1.17-.13-.27,3.92,1.09-.75-1.56,2.37-8.54.45.12a3.37,3.37,0,0,1,1.09.44A1,1,0,0,1,252.71,45.79Zm2.54-.67a10,10,0,0,0-1.85,2.06l-.05.08-.14-.21,0-.07a8.31,8.31,0,0,1,1.82-2l.06,0Z"/><path class="cls-5" d="M230.83,55.28l.06.07-.09.09a18.31,18.31,0,0,0-2.49,3.23l-.53.89-3.13,5.08,0,3.46,1.24,1.12-4.14,0L223,68.11l0-3.45-2.06-3.13-.45-.7a10.72,10.72,0,0,0-1-1.37,8.53,8.53,0,0,0-1.15-1l-.09-.08,4.29,0-1,1.11,2.86,4.25.27-.44L222,59.43l.89-.85.18.13-.77.72,2.38,3.62,1.89-3a4.43,4.43,0,0,0,.81-2,1.92,1.92,0,0,0-.73-1.24,16.59,16.59,0,0,0,4-1.5Zm.39.51v.35l-.08.08a11.46,11.46,0,0,0-1.22,1.37c-.34.46-.85,1.22-1.51,2.3l-3,4.87,0,3.33,1.52,1.82-5.32,0-.11-.23,5,0-1.3-1.59,0-3.39,3.11-5,.48-.79A14.36,14.36,0,0,1,231.22,55.79Z"/><path class="cls-5" d="M233.36,70a2.36,2.36,0,0,0,1.72.72,3,3,0,0,0,1.2-.31l.06,0a8.85,8.85,0,0,0-.6.94l-.58,1.06,0,.06a3.76,3.76,0,0,1-2.28-1.39,3.92,3.92,0,0,1-1.64.4,3.1,3.1,0,0,1-2.11-.68l0,0a4.61,4.61,0,0,0,2,.51A4.21,4.21,0,0,0,232.7,71l0-.07a1.43,1.43,0,0,0-.22-.28,4.37,4.37,0,0,1-1.52.29,3.88,3.88,0,0,1-3.14-1.5,5.88,5.88,0,0,1-1.27-3.8,5.75,5.75,0,0,1,1.19-3.81,4,4,0,0,1,3.19-1.48A3.82,3.82,0,0,1,234,61.72a5.81,5.81,0,0,1,1.21,3.77,6.6,6.6,0,0,1-.4,2.44,6,6,0,0,1-1.36,2Zm-.42-1.18a8.17,8.17,0,0,0,.52-3.37q0-4.52-2.7-4.5t-2.57,4.76a6.51,6.51,0,0,0,.74,3.34,2.24,2.24,0,0,0,2,1.2,2.39,2.39,0,0,0,1-.24,1.41,1.41,0,0,0-1.25-.86.8.8,0,0,0-.19,0l.55-.69a4.36,4.36,0,0,1,1.4.82l.1.07c.06-.08.14-.18.22-.3l0,0a3.7,3.7,0,0,0-1.39-.81l.11-.18a5,5,0,0,1,1.3.71Zm-.64-6.93-.11-.05a2.65,2.65,0,0,0-1.07-.28,1.78,1.78,0,0,0-1.7,1.11,8.78,8.78,0,0,0-.5,3.58c0,1.89.55,3.15,1.62,3.77h-.07a2,2,0,0,1-1.29-1.25,6.78,6.78,0,0,1-.46-2.67,8.55,8.55,0,0,1,.52-3.58A1.87,1.87,0,0,1,231,61.4a2,2,0,0,1,1.28.42Zm1.22-1a3.49,3.49,0,0,1,1.77,1.71,6.33,6.33,0,0,1,.67,3,6.61,6.61,0,0,1-1.45,4.35,2.45,2.45,0,0,0,1.41.46v0a3.54,3.54,0,0,1-.45,0,1.84,1.84,0,0,1-1.28-.52,6,6,0,0,0,1.55-4.41,5.31,5.31,0,0,0-2.22-4.61Zm3.42,9.93a13,13,0,0,0-1.2,1.91l-.05.09-.19-.1a10.77,10.77,0,0,1,.6-1l.61-.9,0-.07Z"/><path class="cls-5" d="M244.72,56.84l-1.51,1.23,0,5.49a16.91,16.91,0,0,1-.08,2.18,2.6,2.6,0,0,1-.38,1.09A3.19,3.19,0,0,1,240,67.94a3.81,3.81,0,0,1-3.12-1.07,5.42,5.42,0,0,1-.73-3.29l0-5.64-1.16-1,4,0L237.76,58l0,5.56,0,1.31a2.44,2.44,0,0,0,.54,1.79,2.37,2.37,0,0,0,1.78.52,2.06,2.06,0,0,0,1.89-.82,6.11,6.11,0,0,0,.4-2.81v-5.5l-1.33-1.21Zm.29.58-1.15,1,0,5.29a8.8,8.8,0,0,1-.39,3.38,3.31,3.31,0,0,1-3.24,1.62,4.31,4.31,0,0,1-3.16-1l.07,0,.3.17a5.28,5.28,0,0,0,2.69.6c1.57,0,2.6-.52,3.11-1.51a8.38,8.38,0,0,0,.38-3.21l0-5.45,1.26-1Zm-5.74-.08-.83.84.05,6.32v.59l.27,1.08a3.7,3.7,0,0,0,.75.77l0,.08a1.83,1.83,0,0,1-1-.83,4.24,4.24,0,0,1-.28-1.71l0-6.38,1-.94Z"/><path class="cls-5" d="M254.1,60l-.14.16a8.83,8.83,0,0,0-1.36,2.45c0-.13-.1-.22-.13-.29a2.79,2.79,0,0,0-1-1.31,4.37,4.37,0,0,0-1.92-.28c-.43,0-.94,0-1.53.05l0,3.91h.55l0-3.46c.44,0,.85-.07,1.24-.07a4.2,4.2,0,0,1,1.59.22,2.16,2.16,0,0,1,.92.89l-.18-.13a4.08,4.08,0,0,0-1-.64,4.16,4.16,0,0,0-1.2-.09c-.18,0-.51,0-1,0h-.18l0,3.23h1.57l1.08-1.51,0,3.66-1.11-1.41H248l0,4.78h.55l0-4.37h1.84l.22.22H248.8l0,4.15a8.92,8.92,0,0,0,2.46-.26,2.11,2.11,0,0,0,1.15-1l.44-.78L253,68a5.56,5.56,0,0,0,.56,1.5,7.23,7.23,0,0,0,1.09,1.3l-9.53.06,1.29-1,0-3.79a3.1,3.1,0,0,0-1.29.45l-.12-.18a2.93,2.93,0,0,1,1.41-.49v-.4a1,1,0,0,0-.21,0,2.31,2.31,0,0,0-1.58.65,1.7,1.7,0,0,1,1.78-1.37l0-3.64-1.3-1Zm1.5,10.83-.43.77-9.29.07-.14-.23,9.31-.07.29-.53a6.56,6.56,0,0,1-1.74-2.41l.27.1a6.92,6.92,0,0,0,1.6,2.17ZM252,63.44l0,3.76-.22-.11,0-3.76Zm2.48-2.85-.06.08A10.24,10.24,0,0,0,253.08,63l-.14-.18a10.29,10.29,0,0,1,1.45-2.43Z"/><path class="cls-6" d="M235.26,94s.55-.84-1.35,4"/><line class="cls-6" x1="238.65" y1="92.03" x2="238.67" y2="95.88"/><path class="cls-6" d="M234.89,84.72s.72,3.66,0,5.06"/><path class="cls-6" d="M242.11,84.67a17.72,17.72,0,0,0-.6,8.69"/><path class="cls-7" d="M262.91,46.94s-.77-3.88-7.71-5c0,0,5.13.67,6.69,2.14"/><path class="cls-8" d="M262.68,43.24s1.67-4.43-2.21-9.79c0,0,4.28,3.92,4.34,13.94"/><path class="cls-8" d="M266.27,57a6.9,6.9,0,0,0,2.78-4.89s0,5.21-3.43,8.68"/><path class="cls-7" d="M262.77,62.64s.9-2.27-2.69-6a8.17,8.17,0,0,1,3.3,3.81"/><path class="cls-8" d="M259,73.52s4.85.06,7-5.47c0,0-2.93,6.93-8.24,6.75"/><path class="cls-7" d="M252.15,76.85a4.94,4.94,0,0,0,1.34-4s.58,2.61.06,3"/><path class="cls-9" d="M218.28,73.76a5.11,5.11,0,0,0,3.91-.17,10.92,10.92,0,0,1-3.14.91"/><polyline class="cls-10" points="218.78 34.93 221.9 34.91 218.19 35.49"/><path class="cls-6" d="M217.1,75s-7.3-.79-9-4.74c0,0,4.55,7.85,11,6.76"/><path class="cls-6" d="M208,55.7s-6-4.29-3.78-11.09c0,0-5.14,8.12,4.1,14.29"/><path class="cls-6" d="M251.1,31.61a56.14,56.14,0,0,1,5.65,4.6A27,27,0,0,0,251.1,31.61Z"/><path class="cls-6" d="M256.75,36.21a26.89,26.89,0,1,1-35.21-3.54S192.21,51.6,219.91,77.8c0,0,13.7,5.71,12.42,15.15a30,30,0,0,1-2.35,8l14.41-.1a20.19,20.19,0,0,1-.7-7.86c.82-9.63,6.09-13.58,9.55-15.14A16.94,16.94,0,0,0,260,72.26C269.27,59.43,268.56,47.27,256.75,36.21Z"/><path class="cls-8" d="M212.38,43.09l1.23-10.54a16.64,16.64,0,0,0-3,12.56"/><path class="cls-6" d="M212.48,65.37c2.82-6.74,2-16.59,2-16.59s-1.21,10.91-3,14"/></g></g></g></g></svg>